<?xml version="1.0" encoding="utf-8"?>
<!-- Generator: Adobe Illustrator 26.0.1, SVG Export Plug-In . SVG Version: 6.00 Build 0)  -->
<svg version="1.1" id="Layer_1" xmlns="http://www.w3.org/2000/svg" xmlns:xlink="http://www.w3.org/1999/xlink" x="0px" y="0px"
	 viewBox="0 0 3000 3000" style="enable-background:new 0 0 3000 3000;" xml:space="preserve">
<style type="text/css">
	.st0{fill:#FF4A0B;}
</style>
<path class="st0" d="M180.6,1463.7c11,0.7,17.1-35.7,19.1-49c1.3,15.3,7.1,54.5,20.5,54.1c15.8-0.5,22.5-48.6,23.2-66.7
	c0.7-16.8-1-65.8-17.6-67.1c-14.2-1.1-22.9,34.3-24.8,50c-0.9-13.4-3.8-49.1-14.9-49.4c-14.3-0.3-21.8,44.6-22.6,62.2
	C162.6,1414.6,166.4,1462.8,180.6,1463.7z M200.7,1399.8c1.5-14.4,7.1-49.1,23.6-47.6c16.1,1.5,18.6,35.7,18,49.8s-6.5,49-22.2,48.6
	C205.4,1450.3,199.2,1414.5,200.7,1399.8z M164.4,1397.9c0.5-12.2,6.2-45.6,20.2-44.4c13.6,1.2,15.7,33.7,15.1,46.3
	s-5.5,45.5-19,45.3C166.9,1444.8,163.8,1410.4,164.4,1397.9L164.4,1397.9z"/>
<path class="st0" d="M172.3,1308.4c3-30.7,7-61.2,11.9-91.7c19.7,23.7,39.8,47,60.5,69.8c3.6,3.9,5.3,11.7,4.5,19.8
	c1.9-17.6,2.9-26.3,5.3-43.5c-1.1,8-4.2,10.9-7.7,6.9c-20.2-22.7-40-45.9-59.1-69.4c-1.1-1.4-1.5-4.1-1-6.8
	c-7.8,45.3-13.7,90.7-17.8,136.5l12.3,1.3C174.7,1330.6,171.1,1321.4,172.3,1308.4z"/>
<path class="st0" d="M303.7,982.2l-4.1-1.7c-24.3,66.8-43.5,135.4-57.4,205.1l4.3,1C260.4,1117.2,279.5,1048.8,303.7,982.2z"/>
<path class="st0" d="M277.2,939.3c9.5,3.4,26.1-17.2,32.8-30.5c-3.7,13.9-11.4,44.9,2.3,50.1c15.3,5.9,35.7-28.4,42.1-42.6
	c7-15.5,19-51.1,4.4-59.9c-12.4-7.5-30.9,18.3-38.6,29.6c5.6-14,10.4-39.8,1.4-44.9c-10.8-6.2-34.2,25.7-40.2,40
	C275.5,895.4,265.1,935,277.2,939.3z M352.2,869.7c13.5,7.1,7,33.7,1.3,46.3c-5.5,12.2-21.7,35.1-35.5,29
	c-14.3-6.3-8.2-34.5-2.5-47.3C321,885.4,338.3,862.4,352.2,869.7L352.2,869.7z M282.3,881.7c5.9-13.1,22.9-31.8,32.5-26.9
	c9.5,4.8,5.7,29.2-0.3,42.4c-5.9,13-20.3,31.6-31.6,27.7S277.3,893,282.3,881.7L282.3,881.7z"/>
<path class="st0" d="M345.8,841.4c23.1,12.6,54.5-16.3,66.9-36.4c12.2-19.8,22.4-60.5,0-75.8c-23.6-16.1-58.7,13.1-69.2,33.5
	C332.3,784.5,320.3,827.5,345.8,841.4z M344.1,763.4c11.2-18.2,39-36.5,60.5-22.1c20.5,13.7,17.4,44.6,7.2,63.2
	c-11,20-38.7,35-59.1,23.8C330.7,816.2,331.7,783.6,344.1,763.4L344.1,763.4z"/>
<path class="st0" d="M416.6,723.5c21.5,14.8,55.4-8.7,70.1-27.3c14.4-18.1,28.1-56.4,7.7-73.7c-21.5-18.2-58.2,5.8-72.2,24.5
	C407.7,666.5,394,707.9,416.6,723.5z M422.8,647.7c13.7-16.5,42.8-30.6,62.4-14.4c18.6,15.4,13,45.1,0.8,62.3
	c-13.3,18.5-42.5,29.2-61.1,16C405.4,698,407.8,665.8,422.8,647.7z"/>
<path class="st0" d="M562.3,624.2c-10.7-36.8-20.2-73.7-28.4-111c-2.2,2.1-3.3,3.2-5.5,5.3c8.4,37.3,18.1,74.2,29,110.9
	C559.4,627.4,560.3,626.3,562.3,624.2z"/>
<path class="st0" d="M651.3,468.1c-9.9,8.8-27.2,32.2-17.5,42.2c11,11.4,42.2-6,54.5-15.9c12.7-10.3,36.9-34.5,27.6-47.8
	c-7.8-11.2-35.1-0.2-46.4,7.4c16.8-15.2,24.6-31.5,19-36.7c-11.9-11.3-39.4,5.9-51.9,15.2c-11.3,8.4-35.4,37-26.7,45.8
	C617.3,485.7,639.5,476.4,651.3,468.1z M704.7,454.7c9.2,11.7-6.7,31-17.1,39.1c-10.7,8.3-33.4,19-43.3,7.8
	c-10.2-11.5,5.8-31.9,16.4-40.1C671.5,453,695.2,442.5,704.7,454.7L704.7,454.7z M637.2,433.2c16.4-12.7,33.6-15.6,39.8-7.7
	s-1.2,22.8-17,35.1s-32.5,16.2-39.2,8.5S620.8,446,637.2,433.2L637.2,433.2z"/>
<path class="st0" d="M695.5,392.8c20.7-14.2,41.8-27.9,63.3-40.8c-1,27.7-1.4,55.4-1,83.1c0,4.8-3.4,10.3-8.8,14
	c11.8-8,17.7-11.9,29.7-19.5c-5.5,3.5-9.4,2.8-9.4-2c-0.1-27.4,0.6-54.8,1.9-82.2c0.1-1.6,1.5-3.4,3.5-4.6
	c-32.3,19.2-63.6,39.3-94.3,60.8l7.6,9.9C683.9,406.2,686.9,398.7,695.5,392.8z"/>
<path class="st0" d="M986.5,302l-1.8-4c-57.5,22.9-113.5,49.5-167.6,79.6l2.3,3.7C873.4,351.3,929.2,324.9,986.5,302z"/>
<path class="st0" d="M1038.1,260.3c-12.2,4.9-36.5,20.9-30.7,33.4c6.6,14.3,41.6,8.4,56.6,3.2c15.4-5.4,46.4-20.1,42.2-35.6
	c-3.6-13-33-11.6-46.2-8.2c20.9-8.7,33.8-21.4,30.3-28.1c-7.4-14.4-39.9-7.9-54-2.7c-12.8,4.7-46.4,21.6-40.5,33.7
	C1000.3,265.6,1024.2,264.1,1038.1,260.3z M1092.9,265.2c4.7,13.9-16.8,26.8-29.3,30.8c-12.9,4.2-37.8,6.6-43.4-7
	c-5.8-14,16.4-27.8,28.9-31.9C1062.2,252.9,1088.1,250.8,1092.9,265.2L1092.9,265.2z M1036.6,223.2c19.7-6.5,36.9-3.6,40.1,5.8
	s-8.8,20.9-27.8,27.2s-36,4.4-39.8-5S1016.8,229.7,1036.6,223.2L1036.6,223.2z"/>
<path class="st0" d="M1177.8,265.1c22.1-4.8,56-25.9,50.5-51.2c-5.8-26.7-48.3-31-71-25.4c-23,5.7-58.4,28.4-50.2,53.7
	C1114.8,266.4,1154.4,270.2,1177.8,265.1z M1157.3,189.3c21-4.1,51.8,3.1,57.3,27.2c5.2,22.8-17,42.2-37,47.7
	c-22,6-50.5-4.5-57-25.6C1113.6,216.6,1134.7,193.7,1157.3,189.3z"/>
<path class="st0" d="M1290.5,163.7c-23.5,3.6-61.1,22.9-55.5,48.9c5.3,24.8,44.4,32.1,68.1,29.2c22.5-2.8,58.4-20.6,55.5-46.4
	C1355.6,168.2,1313.5,160.2,1290.5,163.7z M1302.9,240.8c-22.4,3.9-49.8-9.1-54.1-30.7c-4.6-22.5,18.8-43.3,41.7-45.6
	c21.2-2.1,51.2,7.8,54.2,32.2C1347.4,220,1323.4,237.2,1302.9,240.8z"/>
<path class="st0" d="M1462,143.7l-7.6,0.2c-19.6,32.3-38,65.1-55.4,98.6c2.8-0.2,4.2-0.3,7.1-0.5
	C1423.6,208.6,1442.2,175.9,1462,143.7z"/>
<path class="st0" d="M1592.5,152c-14.2-1.1-51.5,4.1-51.3,16.2c0.2,10.2,23,17.9,37.2,19.4c-13.4,0-42.2,5.8-42.2,19.4
	c0.1,15.5,35.2,23.1,50.7,23.7c16.7,0.7,51.1-1.5,53.6-17.4c2.1-13.2-25.9-22.7-39.1-24.4c14.3,0.2,38.2-4.8,39.6-14.8
	C1642.8,162.1,1607.7,153.2,1592.5,152z M1626.8,212.1c-1.5,14.6-26.4,18.5-39.8,17.7s-37.5-7.7-37-22.4
	c0.6-15.1,26.4-19.5,39.9-18.7S1628.3,197.2,1626.8,212.1L1626.8,212.1z M1626.9,173c-1,10-16.8,16.1-36.9,14.8s-35-9.1-34.5-19.2
	s16.2-16.9,37-15.7S1627.8,163.1,1626.9,173L1626.9,173z"/>
<path class="st0" d="M1663.3,160.6c25.2,2.8,50.2,6,75.2,10.1c-20.2,19.9-39.9,40.2-59.2,60.9c-3.3,3.6-9.7,5.4-16.2,4.7
	c14.2,1.6,21.3,2.5,35.5,4.5c-6.5-0.9-8.9-3.9-5.5-7.4c19.3-20.4,39-40.3,59.1-59.7c1.2-1.1,3.5-1.6,5.8-1.2
	c-37.2-6.2-74.4-11.2-112-15.1l-1.3,12.1C1645.4,163.1,1652.9,159.5,1663.3,160.6z"/>
<path class="st0" d="M1944.3,272.6c-59.3-18.9-119.6-34.2-180.7-45.9l-0.9,4.2c60.9,11.7,121,27,180.1,45.8
	C1943.3,275.1,1943.7,274.2,1944.3,272.6z"/>
<path class="st0" d="M2004.2,321.3c15.8,5.8,48.9,14.2,56.7-0.1c6.5-11.9-16.8-29.5-28.7-35c13.7,4.5,37.3,7.4,42.5-2
	c6.6-11.8-25.8-30.2-38.4-35.9c-13-5.9-46.4-13.8-54.1-0.2c-3.8,6.7,8.2,19.9,28.6,29.7c-13-4.1-42-7.3-46.6,5.7
	C1959,298.2,1989.8,316.1,2004.2,321.3z M1995.5,252.9c3.8-9.3,21.1-11.2,40.4-3.7c19.3,7.5,30.1,20.4,25.8,29.5s-21.4,10.1-40,2.8
	S1991.6,262.2,1995.5,252.9L1995.5,252.9z M1977.1,288.1c5.7-14.1,31.4-10.6,44.2-5.7c12.3,4.8,33.6,19.7,27,33.4
	c-6.4,13.4-31.1,9.6-43.7,4.7C1992.3,315.7,1971.6,301.7,1977.1,288.1L1977.1,288.1z"/>
<path class="st0" d="M2150.7,299c-22-10.6-63.7-15.5-75.6,8.4c-11.3,22.8,15.9,50.8,36.7,61.5s60.2,16,74.1-6.2
	C2200.5,339.5,2171.4,309,2150.7,299z M2173.7,356.1c-12.3,20-42.1,20.8-61.5,12.1c-20.6-9.3-34.5-35.4-24.5-55
	c10.5-20.6,41.8-24.7,62.4-13.5C2168.7,309.8,2186.7,335,2173.7,356.1L2173.7,356.1z"/>
<path class="st0" d="M2296.3,432.7c16.9-21.9-8.7-55.3-28.4-67.4c-20.8-12.8-61.8-21.8-76.1,0.9c-13.6,21.6,10.6,52.3,30.2,65.1
	C2241.3,444,2280.2,453.5,2296.3,432.7z M2203.8,373.1c12.5-19.5,44.1-20.5,63.4-7.2c17.5,12,32.7,39.1,17.6,58.8
	c-14.3,18.8-44.1,16.5-62.4,5.8C2203,419.1,2191.8,391.7,2203.8,373.1z"/>
<path class="st0" d="M2292.9,493.9c2.2,1.7,3.4,2.5,5.6,4.3c36.7-13.3,73.7-25.2,111.2-36c-2.3-2-3.5-3-5.8-4.9
	C2366.4,468.3,2329.6,480.5,2292.9,493.9z"/>
<path class="st0" d="M2480.7,590.1c10.4,10,31.4,22.8,39.5,16.5c9.9-7.8-9.5-38.6-19.9-50.1c-9.6-10.6-40.9-32.2-49.3-23
	c-7.1,7.7,4.4,28.9,13.6,39.7c-9.9-9.2-35.2-24.5-44.8-14.3c-10.9,11.6,9.7,41.1,20.6,52.2c11.7,11.9,38.6,34.2,51.7,24.2
	C2503.1,627,2489.3,600.5,2480.7,590.1z M2461.2,543.5c7.3-7.1,23.9-1.6,38.4,13.7s18.9,32,11.2,38.7s-23.7,0.2-37.6-14.5
	S2453.8,550.6,2461.2,543.5z M2483,624.8c-11.4,9.8-32.5-4.6-41.8-14.4s-22.2-31.4-11.4-41.8c11.1-10.8,33.3,3.5,42.6,13.4
	S2494.7,614.7,2483,624.8L2483,624.8z"/>
<path class="st0" d="M2516.4,687.2c28.5-1.4,56.8-2.1,85.3-2.1c1.7,0,3.7,1.3,5.1,3.3c-22.4-31.3-46-61.5-70.9-90.8l-9.6,8.1
	c5.1-4.3,13.1-1.8,20,6.4c16.5,19.8,32.5,40.1,47.7,61c-28.8,0.3-57.5,1.3-86.2,3.1c-4.9,0.3-10.9-2.8-15.2-8
	c9.2,11.2,13.8,16.9,22.7,28.5C2511.1,691.3,2511.4,687.4,2516.4,687.2z"/>
<path class="st0" d="M2568.7,735.5c36.4,54.4,68.6,111.5,96.2,170.8l4-1.9c-27.7-59.5-60-116.8-96.5-171.3L2568.7,735.5z"/>
<path class="st0" d="M2675.9,989.7c5.9,15.7,23.7,51.1,39.5,46.5c13.8-4,8.2-36.7,5.3-51c5.9,13.9,21.5,36.4,30.9,33.5
	c11.9-3.7,4.9-44.2-0.9-59.5c-5-13.3-26.4-49.5-37.8-43.6c-9.2,4.8-6,31.3-1.2,45.8c-6.9-11.9-23.6-39.6-36.7-32.9
	C2660,936,2670.2,974.4,2675.9,989.7z M2718.9,929.8c11.5-3.8,25.8,16.1,30.9,29.7c4.4,11.7,8.3,40.9-3.2,44.1s-24.8-17.1-29.9-30.6
	C2712.4,961.5,2707.8,933.5,2718.9,929.8L2718.9,929.8z M2680.8,942.2c14.3-6.4,30.3,18.5,35,31.2c4.9,13.3,9.4,42.7-5.2,48.1
	c-14.2,5.2-29-19.6-33.8-32.2C2671.9,976.2,2666.9,948.5,2680.8,942.2L2680.8,942.2z"/>
<path class="st0" d="M2735.1,1037.2c-26.8,9.5-25.1,56.9-19.3,79.7c5.4,21,25.6,65.9,54.8,59.4c29.6-6.6,29.1-60.3,22.6-81.8
	C2786.4,1072.1,2763.3,1027.3,2735.1,1037.2z M2792.3,1094.5c5.9,22,1.5,59.2-25,65.7c-25.2,6.2-45.5-22.4-50.5-43.6
	c-5.4-22.6-1.1-56.1,23-64.3C2764.9,1043.7,2786.3,1072.3,2792.3,1094.5z"/>
<path class="st0" d="M2772.1,1184.2c-29,6.6-30.8,57.4-27.6,80.5c3,22.1,18.9,72.8,48.1,69.7c32-3.3,33.3-60.3,31.1-82.7
	C2821.5,1230.2,2802.8,1177.2,2772.1,1184.2z M2822.8,1251.7c3.4,22.5-3.9,62.1-31.8,65.4c-26.5,3.1-42.9-30.7-45.6-52.5
	c-2.8-23.2,4.1-58.6,29.6-64.1C2801.8,1194.8,2819.4,1228.9,2822.8,1251.7z"/>
<path class="st0" d="M2745.3,1392.7c34.2,23.9,67,49.2,98.9,76.1c0-4,0-6,0-10c-32-26.6-64.9-51.5-99.3-75
	C2745,1387.3,2745.1,1389.1,2745.3,1392.7z"/>
<path class="st0" d="M2819.4,1536.2c-11-0.7-17.1,35.7-19.1,49c-1.3-15.3-7.1-54.5-20.5-54.1c-15.8,0.5-22.5,48.6-23.2,66.7
	c-0.7,16.8,1,65.8,17.6,67.1c14.2,1.1,22.9-34.3,24.8-50c0.9,13.4,3.8,49.1,15,49.4c14.3,0.3,21.8-44.6,22.6-62.2
	C2837.4,1585.3,2833.6,1537.1,2819.4,1536.2z M2799.3,1600.1c-1.5,14.4-7.1,49.1-23.6,47.6c-16.1-1.5-18.6-35.7-18-49.8
	s6.5-49,22.2-48.6C2794.6,1549.6,2800.8,1585.4,2799.3,1600.1L2799.3,1600.1z M2835.6,1602c-0.5,12.2-6.2,45.6-20.2,44.4
	c-13.6-1.2-15.7-33.7-15.1-46.3s5.5-45.6,19-45.3C2833.1,1555.1,2836.2,1589.5,2835.6,1602L2835.6,1602z"/>
<path class="st0" d="M2827.7,1691.5c-3,30.7-6.9,61.3-11.9,91.8c-19.7-23.7-39.8-47-60.5-69.8c-3.6-4-5.3-11.7-4.5-19.8
	c-1.9,17.6-2.9,26.3-5.3,43.5c1.1-7.9,4.2-10.9,7.7-6.9c20.3,22.7,40,45.9,59.1,69.4c1.1,1.4,1.5,4.1,1,6.8
	c7.8-45.3,13.6-90.7,17.8-136.5l-12.3-1.3C2825.3,1669.3,2829,1678.5,2827.7,1691.5z"/>
<path class="st0" d="M2696.3,2017.7l4.1,1.7c24.3-66.8,43.5-135.3,57.4-205l-4.3-1C2739.6,1882.8,2720.5,1951.1,2696.3,2017.7z"/>
<path class="st0" d="M2722.8,2060.6c-9.5-3.4-26.1,17.2-32.8,30.5c3.7-13.9,11.4-44.9-2.3-50.1c-15.3-5.9-35.7,28.4-42.1,42.6
	c-7.1,15.5-19,51.1-4.4,59.9c12.4,7.5,30.9-18.3,38.6-29.6c-5.6,13.9-10.4,39.8-1.4,44.9c10.8,6.2,34.2-25.7,40.2-40
	C2724.5,2104.6,2734.8,2064.9,2722.8,2060.6z M2647.8,2130.2c-13.5-7.1-7-33.7-1.3-46.3c5.5-12.2,21.8-35.1,35.6-29
	c14.3,6.3,8.2,34.5,2.4,47.4C2679,2114.5,2661.7,2137.5,2647.8,2130.2L2647.8,2130.2z M2717.7,2118.2c-5.9,13.1-22.9,31.8-32.6,26.9
	c-9.5-4.8-5.7-29.2,0.3-42.4c5.9-13,20.3-31.6,31.6-27.7S2722.7,2107,2717.7,2118.2L2717.7,2118.2z"/>
<path class="st0" d="M2654.2,2158.5c-23.1-12.6-54.5,16.3-66.9,36.4c-12.2,19.8-22.4,60.4,0,75.8c23.6,16.1,58.6-13.1,69.2-33.5
	C2667.7,2215.4,2679.7,2172.5,2654.2,2158.5z M2655.9,2236.5c-11.2,18.2-39,36.5-60.5,22.1c-20.4-13.7-17.4-44.6-7.2-63.2
	c11-19.9,38.7-35,59.1-23.8C2669.3,2183.7,2668.3,2216.3,2655.9,2236.5L2655.9,2236.5z"/>
<path class="st0" d="M2583.4,2276.4c-21.5-14.8-55.4,8.7-70.1,27.3c-14.4,18.1-28.1,56.4-7.7,73.7c21.5,18.2,58.2-5.8,72.2-24.5
	C2592.3,2333.4,2606,2292,2583.4,2276.4z M2577.2,2352.2c-13.7,16.5-42.8,30.6-62.4,14.4c-18.6-15.4-13-45.1-0.8-62.3
	c13.3-18.5,42.5-29.2,61.1-16.1C2594.6,2302,2592.2,2334.1,2577.2,2352.2z"/>
<path class="st0" d="M2437.7,2375.7c10.7,36.8,20.2,73.6,28.4,111c2.2-2.1,3.3-3.2,5.5-5.3c-8.4-37.4-18.1-74.2-29-110.9
	C2440.6,2372.6,2439.6,2373.6,2437.7,2375.7z"/>
<path class="st0" d="M2348.7,2531.8c9.9-8.8,27.2-32.2,17.6-42.2c-11.1-11.4-42.2,6-54.5,15.9c-12.7,10.3-36.9,34.5-27.6,47.8
	c7.8,11.2,35.1,0.2,46.4-7.4c-16.8,15.2-24.6,31.4-19,36.7c11.9,11.3,39.4-5.9,51.9-15.2c11.3-8.4,35.4-37,26.7-45.8
	C2382.7,2514.2,2360.4,2523.5,2348.7,2531.8z M2295.3,2545.3c-9.2-11.7,6.7-31,17.1-39.1c10.7-8.3,33.4-18.9,43.3-7.8
	c10.2,11.5-5.8,31.9-16.4,40.1C2328.5,2546.9,2304.8,2557.4,2295.3,2545.3z M2362.8,2566.7c-16.4,12.7-33.6,15.6-39.9,7.7
	s1.2-22.8,17-35.1s32.5-16.2,39.2-8.5S2379.2,2554,2362.8,2566.7z"/>
<path class="st0" d="M2304.5,2607.1c-20.7,14.2-41.8,27.9-63.3,40.8c1-27.7,1.4-55.4,1.1-83.1c-0.1-4.8,3.4-10.3,8.8-13.9
	c-11.8,8-17.7,11.9-29.7,19.5c5.5-3.5,9.4-2.8,9.4,2c0.1,27.4-0.6,54.8-1.9,82.2c-0.1,1.6-1.5,3.4-3.5,4.6
	c32.2-19.1,63.5-39.3,94.2-60.7l-7.6-9.9C2316.1,2593.7,2313.1,2601.2,2304.5,2607.1z"/>
<path class="st0" d="M2013.4,2697.9l1.8,4c57.5-22.9,113.5-49.5,167.6-79.6l-2.3-3.7C2126.6,2648.6,2070.8,2675.1,2013.4,2697.9z"/>
<path class="st0" d="M1961.9,2739.6c12.2-4.9,36.5-20.9,30.7-33.4c-6.6-14.3-41.7-8.4-56.6-3.2c-15.4,5.4-46.4,20.1-42.2,35.6
	c3.6,13,33,11.6,46.2,8.2c-20.9,8.7-33.8,21.4-30.3,28.1c7.4,14.4,39.9,7.9,54,2.7c12.8-4.7,46.4-21.6,40.5-33.7
	C1999.7,2734.3,1975.8,2735.8,1961.9,2739.6z M1907.1,2734.7c-4.7-13.9,16.8-26.8,29.3-30.8c12.9-4.2,37.8-6.6,43.4,7
	c5.8,14-16.4,27.8-28.9,31.9C1937.8,2747,1911.9,2749.1,1907.1,2734.7L1907.1,2734.7z M1963.4,2776.7c-19.7,6.5-36.9,3.6-40.1-5.8
	s8.8-20.9,27.8-27.1s36-4.4,39.8,5S1983.2,2770.2,1963.4,2776.7z"/>
<path class="st0" d="M1822.2,2734.8c-22.1,4.8-56,25.9-50.5,51.2c5.8,26.7,48.3,31,71,25.4c23-5.7,58.4-28.4,50.2-53.7
	C1885.2,2733.5,1845.6,2729.7,1822.2,2734.8z M1842.7,2810.6c-21,4.1-51.8-3.1-57.3-27.2c-5.2-22.8,17-42.2,37-47.7
	c22-5.9,50.5,4.5,57,25.6C1886.4,2783.4,1865.3,2806.2,1842.7,2810.6z"/>
<path class="st0" d="M1697,2758.1c-22.5,2.8-58.4,20.6-55.5,46.4c3,27.1,45.1,35.2,68.1,31.6c23.5-3.6,61.1-22.9,55.5-48.9
	C1759.8,2762.5,1720.6,2755.2,1697,2758.1z M1709.6,2835.4c-21.2,2.1-51.2-7.7-54.2-32.2c-2.8-23.3,21.2-40.5,41.8-44.1
	c22.4-3.9,49.8,9.1,54.1,30.7C1755.8,2812.3,1732.5,2833,1709.6,2835.4L1709.6,2835.4z"/>
<path class="st0" d="M1538,2856.2c3.1-0.1,4.6-0.1,7.7-0.2c19.6-32.3,38-65.1,55.4-98.6l-7.1,0.5
	C1576.4,2791.3,1557.8,2824,1538,2856.2z"/>
<path class="st0" d="M1413.1,2769.1c-16.7-0.7-51.1,1.5-53.6,17.4c-2.1,13.2,25.9,22.8,39.1,24.4c-14.3-0.2-38.2,4.8-39.6,14.8
	c-1.8,12.2,33.4,21,48.6,22.2c14.2,1.1,51.5-4.1,51.3-16.2c-0.2-10.2-23-17.9-37.2-19.5c13.4,0,42.2-5.8,42.1-19.4
	C1463.7,2777.3,1428.5,2769.7,1413.1,2769.1z M1444.6,2831.3c-0.4,9.9-16.2,16.9-37,15.7s-35.4-10.1-34.5-20s16.8-16.1,36.9-14.8
	S1445,2821.2,1444.6,2831.3L1444.6,2831.3z M1410.1,2811.1c-13.3-0.8-38.4-8.4-36.9-23.4c1.5-14.6,26.4-18.5,39.8-17.7
	s37.5,7.7,37,22.4C1449.4,2807.5,1423.5,2811.9,1410.1,2811.1L1410.1,2811.1z"/>
<path class="st0" d="M1336.7,2839.3c-25.2-2.8-50.2-6-75.2-10.1c20.2-19.9,39.9-40.2,59.2-60.9c3.3-3.6,9.7-5.4,16.2-4.7
	c-14.2-1.6-21.3-2.5-35.5-4.5c6.5,0.9,8.9,3.9,5.5,7.4c-19.2,20.4-39,40.3-59.1,59.7c-1.2,1.1-3.5,1.6-5.8,1.2
	c37.2,6.2,74.4,11.2,112,15l1.3-12.1C1354.6,2836.8,1347.1,2840.4,1336.7,2839.3z"/>
<path class="st0" d="M1055.7,2727.3c59.3,18.9,119.6,34.2,180.7,45.9c0.4-1.7,0.5-2.5,0.9-4.2c-60.9-11.7-121-27-180.1-45.8
	C1056.7,2724.9,1056.3,2725.7,1055.7,2727.3z"/>
<path class="st0" d="M995.8,2678.6c-15.8-5.8-48.9-14.1-56.7,0.1c-6.5,11.9,16.8,29.5,28.7,35c-13.7-4.5-37.3-7.4-42.5,1.9
	c-6.6,11.8,25.8,30.2,38.5,35.9c13,5.9,46.4,13.8,54.1,0.2c3.8-6.7-8.2-19.9-28.6-29.7c13,4.1,42,7.3,46.6-5.7
	C1041,2701.7,1010.2,2683.8,995.8,2678.6z M1004.5,2747.1c-3.8,9.3-21.1,11.2-40.4,3.7s-30.1-20.4-25.8-29.5s21.4-10.1,40-2.8
	S1008.4,2737.7,1004.5,2747.1z M1022.9,2711.9c-5.7,14.1-31.4,10.6-44.2,5.7c-12.3-4.8-33.6-19.7-27-33.4
	c6.4-13.4,31.1-9.6,43.7-4.7C1007.7,2684.2,1028.4,2698.2,1022.9,2711.9L1022.9,2711.9z"/>
<path class="st0" d="M888.2,2630.9c-20.7-10.7-60.2-16-74.1,6.2c-14.6,23.3,14.4,53.9,35.1,63.8c22,10.6,63.7,15.5,75.7-8.4
	C936.2,2669.7,909,2641.6,888.2,2630.9z M912.2,2686.8c-10.5,20.6-41.8,24.7-62.4,13.5c-18.5-10.1-36.5-35.4-23.6-56.4
	c12.3-20.1,42.2-20.8,61.5-12.1C908.3,2641.1,922.2,2667.1,912.2,2686.8L912.2,2686.8z"/>
<path class="st0" d="M778.1,2568.6c-19.4-12.7-58.2-22.1-74.3-1.4c-16.9,21.8,8.7,55.3,28.4,67.4c20.8,12.8,61.8,21.8,76.1-0.9
	C821.8,2612.1,797.7,2581.4,778.1,2568.6z M796.2,2626.8c-12.5,19.5-44.1,20.5-63.4,7.2c-17.5-12-32.7-39.1-17.6-58.8
	c14.3-18.8,44.1-16.5,62.4-5.8C797,2580.8,808.2,2608.2,796.2,2626.8z"/>
<path class="st0" d="M701.5,2501.7c-36.7,13.3-73.7,25.2-111.2,36c2.3,2,3.5,3,5.8,4.9c37.5-11,74.4-23.1,111-36.6
	C704.8,2504.3,703.7,2503.4,701.5,2501.7z"/>
<path class="st0" d="M507.9,2364.6c-10.9,8.3,2.8,34.8,11.4,45.2c-10.4-10-31.4-22.8-39.5-16.5c-10,7.8,9.5,38.6,19.9,50.1
	c9.6,10.6,40.9,32.2,49.3,23c7-7.7-4.3-28.9-13.7-39.7c9.9,9.2,35.2,24.5,44.8,14.3c10.9-11.6-9.7-41.1-20.6-52.1
	C547.8,2377,520.9,2354.7,507.9,2364.6z M538.8,2456.5c-7.3,7.1-23.9,1.6-38.4-13.7s-18.9-32-11.1-38.7s23.7-0.2,37.6,14.5
	S546.2,2449.3,538.8,2456.5L538.8,2456.5z M570.2,2431.4c-11.1,10.8-33.3-3.5-42.6-13.4s-22.3-32.8-10.6-42.8
	c11.4-9.8,32.5,4.6,41.8,14.4S581,2420.9,570.2,2431.4z"/>
<path class="st0" d="M453.8,2387.9c-16.5-19.8-32.5-40.1-47.7-61c28.8-0.3,57.5-1.3,86.2-3.1c4.9-0.3,10.9,2.8,15.2,8
	c-9.2-11.2-13.8-16.9-22.7-28.5c4.1,5.4,3.7,9.2-1.2,9.4c-28.5,1.4-56.8,2.1-85.3,2.1c-1.7,0-3.7-1.3-5-3.3
	c22.4,31.3,46,61.4,70.9,90.8l9.6-8.1C468.7,2398.6,460.6,2396.1,453.8,2387.9z"/>
<path class="st0" d="M431.3,2264.4c-36.4-54.4-68.6-111.5-96.2-170.8l-4,1.9c27.7,59.6,60,116.9,96.5,171.4L431.3,2264.4z"/>
<path class="st0" d="M324.1,2010.3c-5.9-15.7-23.7-51.1-39.5-46.5c-13.8,4-8.2,36.7-5.3,51c-5.9-13.9-21.5-36.4-30.9-33.5
	c-11.9,3.7-4.9,44.2,0.9,59.5c5,13.3,26.4,49.5,37.8,43.6c9.2-4.8,6-31.3,1.2-45.8c6.9,11.9,23.6,39.6,36.7,32.9
	C340,2063.9,329.8,2025.5,324.1,2010.3z M281.1,2070.1c-11.5,3.8-25.8-16.1-30.9-29.7c-4.4-11.7-8.3-40.9,3.2-44.1
	s24.8,17.1,29.9,30.6C287.6,2038.4,292.2,2066.4,281.1,2070.1L281.1,2070.1z M319.2,2057.7c-14.3,6.4-30.3-18.5-35-31.2
	c-5-13.3-9.4-42.7,5.2-48.1c14.2-5.2,29,19.6,33.8,32.2C328.1,2023.7,333.1,2051.4,319.2,2057.7L319.2,2057.7z"/>
<path class="st0" d="M264.9,1962.7c26.8-9.4,25.1-56.9,19.3-79.7c-5.4-21-25.6-65.9-54.8-59.4c-29.6,6.6-29.1,60.3-22.6,81.8
	C213.6,1927.8,236.7,1972.6,264.9,1962.7z M207.7,1905.4c-5.9-22-1.5-59.2,25-65.7c25.2-6.2,45.5,22.4,50.5,43.6
	c5.4,22.6,1.1,56.1-23,64.3C235.1,1956.2,213.7,1927.6,207.7,1905.4L207.7,1905.4z"/>
<path class="st0" d="M227.9,1815.7c29-6.6,30.8-57.4,27.6-80.5c-3-22.1-18.9-72.8-48.1-69.7c-32,3.3-33.3,60.3-31.1,82.7
	C178.5,1769.7,197.2,1822.7,227.9,1815.7z M177.2,1748.2c-3.4-22.5,3.9-62.1,31.8-65.4c26.5-3.1,42.9,30.7,45.6,52.5
	c2.8,23.2-4.1,58.6-29.6,64.1C198.2,1805.1,180.6,1771,177.2,1748.2L177.2,1748.2z"/>
<path class="st0" d="M254.7,1607.2c-34.2-23.9-67-49.2-98.9-76.1c0,4,0,6,0,10c32,26.6,64.9,51.5,99.3,75
	C255,1612.7,254.9,1610.8,254.7,1607.2z"/>
<path class="st0" d="M637.3,2295.3l-1.6-1.4C636.2,2294.4,636.8,2294.9,637.3,2295.3z"/>
<path class="st0" d="M895.9,2449.9c-21.9-31.9-40.9-65.3-58.8-99.1c-65.7-126.5-120.7-257.4-163.5-391.7
	c-67.8-212.8-105.3-434.2-102-655.8c3.2-213.3,45-429.7,151.3-621.7c-8.1,9.7-17.9,25.1-27.9,28.9c-7,2.6,1.1-17.2,2.6-20.4
	c12.2-25.7,29.9-49.4,47.3-72.3c-35.9,46.5-67.5,96.2-94.5,148.4c-72,111.9-132.5,229.6-178.2,352.2
	c-133,357.1-148.8,789.3,104.3,1107.9c19.4,23.9,39.5,47.1,61.2,69.3l-0.3-0.2c13.3,11.9,26.9,23.6,40.7,35
	c-47.7-40.1-89.3-88.5-124.7-137.7C468.4,2071.4,419,1934.6,396.9,1793c62.7,10.5,125.5,19.9,188.6,28.2
	c45.1,167,110.6,328.9,193.9,483.5c20.2,37.1,41,74,59.7,111.7c1,2.1,17.7,35.1,7.7,30.7c27.4,15.6,55.3,30.4,83.8,44.3
	C915.5,2482.6,905,2463.2,895.9,2449.9z M392.7,1760.1C354,1426.3,456.9,1090.5,634,799c-143.7,308.9-136.6,662.8-57.8,985.1
	C514.9,1777,453.7,1769,392.7,1760.1z"/>
<path class="st0" d="M1148.4,2446.2c0.4,8.9,7.7,91.4-18,84.3c-51.2-13.6-101.6-29.8-151.1-48.6c-16.5-7.9-26.9-32.3-34.5-46.3
	c-19.1-34.7-34.3-71.3-47-108c-3.8-11-45.3-151.9-20.9-149.5c2.7,0.3,7.3,4.4,11.9,11c-97.2-387.6-109.1-795.3-40.7-1187.8
	c19.7-114,47.2-226.5,82.3-336.8c13.5-41.4,29-82.4,49.2-121.6c7.8-15.2,17.9-41.4,35.3-50.2c-28.6,10.6-56.7,22-84.5,34.2
	c11.4-2.2-0.1,31.3-1.1,34.6c-10.9,38.5-24.8,76.4-38.1,114.3c-42.6,122.6-74.2,248.2-96.1,375.1c-73.4,427.6-45,878.6,103,1291.2
	c14,38.8,28.5,77.6,40.8,116.9c1.1,3.6,14.3,38.8,3.7,37.5c80.8,37.5,165.2,67,251.8,88.1c-32.2-133.6-56.1-268.6-74.2-404.2
	C1131.7,2269,1144.3,2357.5,1148.4,2446.2z"/>
<path class="st0" d="M1337.7,2565.2c-11.8-42.5-17.6-86.4-22.2-129.9c-34-336.1-48.3-674.4-45.2-1012.3
	c20.4-28.5,53.4-45.5,88.4-45.4h114.6v-3.9h-114.6c-34.3,0-66.6-16.2-87.2-43.7c2.7-147.9,8.7-295.7,17.8-443.2
	c9-145.5,21.4-290.9,38.6-435.9c26.7-3,53.5-5.5,80.3-7.3c12.6-0.5,18.9,14.7,22.4,23.3c9.6,23.3,13.2,48.9,16.5,73.5
	c12.6,92.5,12.6,186.7,11.2,279.8c2.4-138.1,5.7-276.2,9.9-414.2c-102.1,3.5-203.6,17.3-302.9,41.2
	c-32.8,131.2-57.2,263.8-75.7,397.2c12.9-91.8,31.1-183.8,62.3-272.1c8.8-24.7,18.3-49.6,31.6-72.7c6.1-10.6,14.8-27.3,28.9-30.7
	c36.2-6.8,72.5-12.5,109.1-17.1c-6.5,43.9-13.5,88.2-26.4,131c-4,13.4-11.4,50-30.8,53.6c-15.4,136.6-26.7,273.6-34,410.8
	c-5.2,96-8.9,192.1-11,288.3c-20.6,24.3-50.9,38.3-82.8,38.2h-114.6v3.9h114.6c31.2,0,60.9,13.3,81.5,36.7
	c-4.1,339.5,12.6,679.5,54.4,1016.5c1.5,12.1,25.4,171.1-2.5,170.3c30.9,5.5,62,10,93.2,13.5
	C1346.5,2610.1,1341.1,2577.6,1337.7,2565.2z"/>
<path class="st0" d="M1789.9,2456.2c8.8-146.1,9.3-292.6,4.9-438.9c-15.1-509.3-83.6-1016-162.1-1520c-2.6,7.7-7.6,26.5-17.2,26.1
	c-12.1-0.5-19.7-28.2-22.9-38.6c-10.7-35-16.1-71.3-21.4-107.2c8.8,68.8,17.7,137.6,26.7,206.5c-7.7,145-18.6,289.9-30.6,434.7
	c-40.9,491.2-97.9,981.6-123.7,1473.7c-1.9,31.4-3.9,63.3-10.9,94.1c-1.9,8.2-5,31.7-17.9,32.8c20.7,1.4,41.5,2.4,62.2,3.1
	c-17.8-1.9-20.3-37.7-21.9-48.9c-6.4-44.9-5-90.7-2.5-135.8c11.6-186.4,27.8-372.6,44.8-558.6c77.7,0.1,155.4-0.8,233.1-2.9
	c10.6,184.3,16.5,368.8,11.8,553.3c-1.3,43.7-4.1,88-14.2,130.9c-3,12.8-7.9,45.7-25.7,49.8c33.1-4.6,66-10.3,98.6-17.1
	C1775.7,2593.8,1789.2,2468.4,1789.9,2456.2z M1501.9,1835.6c29.1-313.9,60.1-627.6,84-941.9c6.7-88.5,12.6-177.1,17.6-265.7
	c38.9,302,76.3,604.1,102.4,907.1c8.6,99.2,16,198.6,22.4,297.9C1652.9,1834.9,1577.4,1835.7,1501.9,1835.6L1501.9,1835.6z"/>
<path class="st0" d="M2274.2,1060.5c-23.1-127-56.8-252.3-102.2-374.2c-14-37.3-28.8-74.6-40.7-112.6c-1.3-4.2-13.1-35.7-2.4-33.6
	c-17.7-8.3-35.5-16.2-53.5-23.9c17.4,9,28.4,34.6,37,49.7c21.6,38.1,38.9,78.1,54.2,118.5c49.4,134.1,84.7,272,107.6,411.8
	c37.3,228.1,42.4,460.9,16.2,690.2c-26.7,233.3-86,464.9-188,681c50-134.2,74.2-275.7,84.8-416.6c19.3-258.2-5.6-519.4-53.7-774.2
	c-52.8-279.6-135.4-554.4-238.3-822.1c-24.6-6.5-49.4-12.5-74.4-17.8c17.3,6.3,24.9,36.9,30,50.6c15.4,41.9,25.2,85.4,33.5,128.8
	c24.7,134.6,42.7,270.1,55.1,406c42.1,462.2,27,933.5-60.8,1390.8c-8.5,42.9-18.5,85.8-34,127.1c-5.2,13.7-12.8,43.7-29.9,50.1
	c19.5-4.4,38.8-9.2,58-14.3c-23.9,0.6,9.5-152.5,11.8-164c96.2-492.8,108.1-1003.2,50.2-1500.5C1918,768.8,1894.8,626.6,1863,486
	c93,272.9,168.6,551.2,216.8,833.5c43.9,257.5,67.2,520.6,48.6,781c-10,139.9-32.4,280.2-79.1,414.2c22.6-9.8,44.9-20.1,66.8-31
	c-10.2,2.3,1.9-28.6,3.2-32.6c12.6-37.3,27.8-74,42.2-110.8C2319.8,1934,2351.3,1484.4,2274.2,1060.5z"/>
<path class="st0" d="M2460.5,781.7c-15.3-20.1-32.6-39-47.4-59.4c0.2,0.1,0.5,0.2,0.7,0.3c-13.7-11.5-27.6-22.8-41.7-33.8
	c41.3,32.9,76.4,77.3,104.5,119.6c147.7,225.1,160.5,499.9,117.6,752.6l-29.6,0.8c-13.1-109.5-21.6-220.2-23.3-330.3
	c-60.2-180.6-145.8-353.4-248.1-517.7c-19.5-31.4-39.5-62.8-57-95.2c-1.1-2-17.6-30.6-6.5-25.7c-30.2-17.4-61.1-33.7-92.6-49
	c12.9,7.3,22.4,21.7,30.9,32.7c18,23.3,34,48,49.1,72.9c170.3,282.8,301.3,590.9,340.8,912.6c-10.5,243.2-76.3,483.6-202.9,699.1
	c-21.7,36.4-45.7,71.4-72,104.7c-12.4,15.7-25.3,34.7-42.4,46.8c24.4-16,48.3-32.7,71.5-50c-1.2,0.6-1.3,1.2-2.4,1
	c4.4-11.8,14.5-22.7,21.7-33.2c19.7-28.4,38.9-57.1,57.4-86.2c131.7-208.6,201.5-444.1,212.6-683.5
	C2646,1297.8,2629.1,1009,2460.5,781.7z"/>
<path class="st0" d="M2413.8,722.6l1.8,1.5C2415.1,723.5,2414.5,722.9,2413.8,722.6z"/>
</svg>
